<svg width="64" height="64" viewBox="0 0 64 64" xmlns="http://www.w3.org/2000/svg">
  <defs>
    <linearGradient id="bgGrad" x1="0%" y1="0%" x2="100%" y2="100%">
      <stop offset="0%" style="stop-color:#0A84FF;stop-opacity:1" />
      <stop offset="100%" style="stop-color:#0071E3;stop-opacity:1" />
    </linearGradient>
  </defs>

  <!-- 圆角矩形背景 -->
  <rect width="64" height="64" rx="14" fill="url(#bgGrad)"/>

  <!-- CC字母 - 更清晰的设计 -->
  <g fill="white">
    <!-- 第一个C -->
    <path d="M 15 32 C 15 26.5 19.5 22 25 22 C 27.5 22 29.7 23 31.2 24.5 L 28.5 27.2 C 27.5 26.2 26.3 25.5 25 25.5 C 21.4 25.5 18.5 28.4 18.5 32 C 18.5 35.6 21.4 38.5 25 38.5 C 26.3 38.5 27.5 37.8 28.5 36.8 L 31.2 39.5 C 29.7 41 27.5 42 25 42 C 19.5 42 15 37.5 15 32 Z" />

    <!-- 第二个C -->
    <path d="M 33 32 C 33 26.5 37.5 22 43 22 C 45.5 22 47.7 23 49.2 24.5 L 46.5 27.2 C 45.5 26.2 44.3 25.5 43 25.5 C 39.4 25.5 36.5 28.4 36.5 32 C 36.5 35.6 39.4 38.5 43 38.5 C 44.3 38.5 45.5 37.8 46.5 36.8 L 49.2 39.5 C 47.7 41 45.5 42 43 42 C 37.5 42 33 37.5 33 32 Z" />
  </g>
</svg>
